<?xml version="1.0" encoding="UTF-8"?>
<svg id="Layer_2" data-name="Layer 2" xmlns="http://www.w3.org/2000/svg" viewBox="0 0 50.11 50">
  <defs>
    <style>
      .cls-1 {
        stroke-width: 0px;
      }
    </style>
  </defs>
  <g id="Layer_1-2" data-name="Layer 1">
    <g>
      <path class="cls-1" d="M19.08.06c18.15.14,31.97-2.94,30.97,20.85-.25,10.13,2.33,25.09-10.33,28.24-7.06,1.43-14.41.56-21.56.83C7.09,50.38.11,45.11.17,33.59.52,17.31-4.14-.71,18.88.07h.2ZM45.5,24.3c.16-13.51.67-20.25-15.43-19.76-3.46-.05-6.92-.08-10.36-.04-5.97-.15-13.43.28-14.64,7.54-1.11,7.04-.42,14.35-.52,21.46-.02,8.54,4.34,12.09,12.69,11.89,5.19.05,10.41.14,15.59,0,3.77-.14,8.35-.42,10.64-3.85,3.08-5.08,1.67-11.45,2.03-17.06v-.19Z"/>
      <path class="cls-1" d="M25.17,12.18c9.18-.17,15.54,10.11,11.52,18.3-4.05,9.23-17.98,9.81-22.78.86-4.83-8.2,1.45-19.3,11.03-19.16h.22ZM33.41,24.88c-1.12-13.36-20.67-8.96-15.85,3.67,3.6,7.92,15.85,5.26,15.85-3.44v-.22Z"/>
      <path class="cls-1" d="M38.5,8.69c2.57-.02,3.89,3.47,1.97,5.17-1.37,1.36-3.95.91-4.74-.85-.98-1.85.49-4.3,2.56-4.32h.21Z"/>
    </g>
  </g>
</svg>