<?xml version="1.0" encoding="UTF-8"?>
<svg id="Layer_2" data-name="Layer 2" xmlns="http://www.w3.org/2000/svg" viewBox="0 0 84.68 84.68">
  <defs>
    <style>
      .cls-1 {
        fill: none;
        stroke: #000;
        stroke-miterlimit: 10;
      }
    </style>
  </defs>
  <g id="Layer_1-2" data-name="Layer 1">
    <g>
      <line class="cls-1" x1="42.34" y1="84.68" x2="42.34" y2="50.81"/>
      <line class="cls-1" x1="26.14" y1="81.46" x2="39.1" y2="50.16"/>
      <line class="cls-1" x1="12.4" y1="72.28" x2="36.35" y2="48.33"/>
      <line class="cls-1" x1="3.22" y1="58.55" x2="34.52" y2="45.58"/>
      <line class="cls-1" x1="0" y1="42.34" x2="33.87" y2="42.34"/>
      <line class="cls-1" x1="3.22" y1="26.14" x2="34.52" y2="39.1"/>
      <line class="cls-1" x1="12.4" y1="12.4" x2="36.35" y2="36.35"/>
      <line class="cls-1" x1="26.14" y1="3.22" x2="39.1" y2="34.52"/>
      <line class="cls-1" x1="42.34" y1="0" x2="42.34" y2="33.87"/>
      <line class="cls-1" x1="58.54" y1="3.22" x2="45.58" y2="34.52"/>
      <line class="cls-1" x1="72.28" y1="12.4" x2="48.33" y2="36.35"/>
      <line class="cls-1" x1="81.46" y1="26.14" x2="50.16" y2="39.1"/>
      <line class="cls-1" x1="84.68" y1="42.34" x2="50.81" y2="42.34"/>
      <line class="cls-1" x1="81.46" y1="58.54" x2="50.16" y2="45.58"/>
      <line class="cls-1" x1="72.28" y1="72.28" x2="48.33" y2="48.33"/>
      <line class="cls-1" x1="58.54" y1="81.46" x2="45.58" y2="50.16"/>
    </g>
  </g>
</svg>