<?xml version="1.0" encoding="UTF-8"?>
<svg id="Layer_2" data-name="Layer 2" xmlns="http://www.w3.org/2000/svg" viewBox="0 0 738 158.76">
  <defs>
    <style>
      .cls-1 {
        stroke-width: 0px;
      }
    </style>
  </defs>
  <g id="Layer_1-2" data-name="Layer 1">
    <g>
      <g>
        <path class="cls-1" d="M63.94,141.4c-34.43,0-62.44-28.01-62.44-62.44S29.51,16.73,63.94,16.73s62.23,27.91,62.23,62.23-27.91,62.44-62.23,62.44ZM63.94,41.33c-20.87,0-37.84,16.88-37.84,37.63s16.98,37.84,37.84,37.84,37.63-16.98,37.63-37.84-16.88-37.63-37.63-37.63Z"/>
        <path class="cls-1" d="M63.94,18.23c33.48,0,60.73,27.24,60.73,60.73s-27.24,60.94-60.73,60.94S3,112.56,3,78.96,30.34,18.23,63.94,18.23M63.94,118.3c21.58,0,39.13-17.65,39.13-39.34s-17.55-39.13-39.13-39.13-39.34,17.55-39.34,39.13,17.65,39.34,39.34,39.34M63.94,15.23C28.68,15.23,0,43.82,0,78.96s28.68,63.94,63.94,63.94,63.73-28.68,63.73-63.94S99.08,15.23,63.94,15.23h0ZM63.94,115.3c-20.04,0-36.34-16.3-36.34-36.34s16.3-36.13,36.34-36.13,36.13,16.21,36.13,36.13-16.21,36.34-36.13,36.34h0Z"/>
      </g>
      <g>
        <path class="cls-1" d="M132.69,157.26c-2.46,0-4.47-2-4.47-4.47v-73.83c0-34.31,27.91-62.23,62.23-62.23s62.44,27.91,62.44,62.23-28.01,62.44-62.44,62.44c-13.55,0-26.8-4.48-37.63-12.68v24.07c0,2.46-2.01,4.47-4.47,4.47h-15.66ZM190.45,41.33c-20.75,0-37.63,16.88-37.63,37.63s16.88,37.84,37.63,37.84,37.84-16.98,37.84-37.84-16.98-37.63-37.84-37.63Z"/>
        <path class="cls-1" d="M190.45,18.23c33.6,0,60.94,27.24,60.94,60.73s-27.34,60.94-60.94,60.94c-14.31,0-28.22-5.14-39.13-14.29v27.18c0,1.64-1.33,2.97-2.97,2.97h-15.66c-1.64,0-2.97-1.33-2.97-2.97v-73.83c0-33.48,27.24-60.73,60.73-60.73M190.45,118.3c21.69,0,39.34-17.65,39.34-39.34s-17.65-39.13-39.34-39.13-39.13,17.55-39.13,39.13,17.55,39.34,39.13,39.34M190.45,15.23c-35.14,0-63.73,28.59-63.73,63.73v73.83c0,3.29,2.68,5.97,5.97,5.97h15.66c3.29,0,5.97-2.68,5.97-5.97v-21.14c10.62,7.29,23.24,11.25,36.13,11.25,35.25,0,63.94-28.68,63.94-63.94s-28.68-63.73-63.94-63.73h0ZM190.45,115.3c-19.92,0-36.13-16.3-36.13-36.34s16.21-36.13,36.13-36.13,36.34,16.21,36.34,36.13-16.3,36.34-36.34,36.34h0Z"/>
      </g>
      <g>
        <path class="cls-1" d="M359.27,140.34c-2.46,0-4.47-2.01-4.47-4.47v-56.49c0-20.87-16.88-37.84-37.63-37.84s-37.63,16.98-37.63,37.84v56.49c0,2.46-2.01,4.47-4.47,4.47h-15.66c-2.46,0-4.47-2.01-4.47-4.47v-56.91c0-34.19,27.91-62.01,62.23-62.01s62.23,28.01,62.23,62.44v56.49c0,2.46-2.01,4.47-4.47,4.47h-15.66Z"/>
        <path class="cls-1" d="M317.17,18.44c33.48,0,60.73,27.34,60.73,60.94v56.49c0,1.64-1.33,2.97-2.97,2.97h-15.66c-1.64,0-2.97-1.33-2.97-2.97v-56.49c0-21.69-17.55-39.34-39.13-39.34s-39.13,17.65-39.13,39.34v56.49c0,1.64-1.33,2.97-2.97,2.97h-15.66c-1.64,0-2.97-1.33-2.97-2.97v-56.91c0-33.37,27.24-60.51,60.73-60.51M317.17,15.44c-35.14,0-63.73,28.49-63.73,63.51v56.91c0,3.29,2.68,5.97,5.97,5.97h15.66c3.29,0,5.97-2.68,5.97-5.97v-56.49c0-20.04,16.21-36.34,36.13-36.34s36.13,16.3,36.13,36.34v56.49c0,3.29,2.68,5.97,5.97,5.97h15.66c3.29,0,5.97-2.68,5.97-5.97v-56.49c0-35.26-28.59-63.94-63.73-63.94h0Z"/>
      </g>
      <g>
        <path class="cls-1" d="M494.88,141.4c-12.92,0-25.09-5.35-33.67-14.72-8.77,9.51-20.71,14.72-33.82,14.72-25.45,0-46.15-20.7-46.15-46.15V21.63c0-2.46,2.01-4.47,4.47-4.47h15.66c2.46,0,4.47,2,4.47,4.47v73.83c0,11.77,9.67,21.34,21.55,21.34s21.34-9.67,21.34-21.55V21.63c0-2.46,2-4.47,4.47-4.47h15.87c2.46,0,4.47,2,4.47,4.47v73.83c0,11.77,9.57,21.34,21.34,21.34s21.55-9.67,21.55-21.55V21.63c0-2.46,2-4.47,4.47-4.47h15.66c2.46,0,4.47,2,4.47,4.47v73.83c0,25.33-20.7,45.94-46.15,45.94Z"/>
        <path class="cls-1" d="M536.55,18.66c1.64,0,2.97,1.33,2.97,2.97v73.83c0,24.5-20.03,44.44-44.65,44.44-13.09,0-25.4-5.72-33.66-15.49-8.48,9.89-20.61,15.49-33.83,15.49-24.62,0-44.65-20.03-44.65-44.65V21.63c0-1.64,1.33-2.97,2.97-2.97h15.66c1.64,0,2.97,1.33,2.97,2.97v73.83c0,12.59,10.34,22.84,23.05,22.84s22.84-10.34,22.84-23.05V21.63c0-1.64,1.33-2.97,2.97-2.97h15.87c1.64,0,2.97,1.33,2.97,2.97v73.83c0,12.59,10.25,22.84,22.84,22.84s23.05-10.34,23.05-23.05V21.63c0-1.64,1.33-2.97,2.97-2.97h15.66M536.55,15.66h-15.66c-3.29,0-5.97,2.68-5.97,5.97v73.62c0,11.06-9,20.05-20.05,20.05s-19.84-8.9-19.84-19.84V21.63c0-3.29-2.68-5.97-5.97-5.97h-15.87c-3.29,0-5.97,2.68-5.97,5.97v73.62c0,11.06-8.9,20.05-19.84,20.05s-20.05-8.9-20.05-19.84V21.63c0-3.29-2.68-5.97-5.97-5.97h-15.66c-3.29,0-5.97,2.68-5.97,5.97v73.62c0,26.27,21.37,47.65,47.65,47.65,12.99,0,24.88-4.96,33.82-14.05,8.78,8.97,20.87,14.05,33.67,14.05,26.27,0,47.65-21.28,47.65-47.44V21.63c0-3.29-2.68-5.97-5.97-5.97h0Z"/>
      </g>
      <g>
        <path class="cls-1" d="M605.52,141.4c-34.43,0-62.44-28.01-62.44-62.44s28.01-62.23,62.44-62.23,62.22,27.91,62.22,62.23v56.91c0,2.46-2,4.47-4.47,4.47h-15.66c-2.46,0-4.47-2.01-4.47-4.47v-7.15c-10.83,8.19-24.08,12.67-37.63,12.67ZM605.52,41.33c-20.87,0-37.84,16.88-37.84,37.63s16.98,37.84,37.84,37.84,37.63-16.98,37.63-37.84-16.88-37.63-37.63-37.63Z"/>
        <path class="cls-1" d="M605.52,18.23c33.48,0,60.73,27.24,60.73,60.73v56.91c0,1.64-1.33,2.97-2.97,2.97h-15.66c-1.64,0-2.97-1.33-2.97-2.97v-10.26c-10.91,9.15-24.82,14.29-39.13,14.29-33.6,0-60.94-27.34-60.94-60.94s27.34-60.73,60.94-60.73M605.52,118.3c21.58,0,39.13-17.65,39.13-39.34s-17.55-39.13-39.13-39.13-39.34,17.55-39.34,39.13,17.65,39.34,39.34,39.34M605.52,15.23c-35.26,0-63.94,28.59-63.94,63.73s28.68,63.94,63.94,63.94c12.89,0,25.51-3.96,36.13-11.25v4.22c0,3.29,2.68,5.97,5.97,5.97h15.66c3.29,0,5.97-2.68,5.97-5.97v-56.91c0-35.14-28.59-63.73-63.73-63.73h0ZM605.52,115.3c-20.04,0-36.34-16.3-36.34-36.34s16.3-36.13,36.34-36.13,36.13,16.21,36.13,36.13-16.21,36.34-36.13,36.34h0Z"/>
      </g>
      <g>
        <path class="cls-1" d="M732.03,141.4c-34.31,0-62.23-28.01-62.23-62.44V5.97c0-2.46,2.01-4.47,4.47-4.47h15.66c2.46,0,4.47,2,4.47,4.47v72.99c0,20.68,16.9,37.65,37.67,37.84,2.44.02,4.43,2.03,4.43,4.47v15.66c0,2.46-2,4.47-4.47,4.47Z"/>
        <path class="cls-1" d="M689.93,3c1.64,0,2.97,1.33,2.97,2.97v72.99c0,21.5,17.57,39.15,39.16,39.34,1.63.01,2.94,1.34,2.94,2.97v15.66c0,1.64-1.33,2.97-2.97,2.97-33.48,0-60.73-27.34-60.73-60.94V5.97c0-1.64,1.33-2.97,2.97-2.97h15.66M689.93,0h-15.66c-3.29,0-5.97,2.68-5.97,5.97v72.99c0,35.26,28.59,63.94,63.73,63.94,3.29,0,5.97-2.68,5.97-5.97v-15.66c0-3.26-2.65-5.94-5.92-5.97-19.95-.18-36.18-16.48-36.18-36.34V5.97c0-3.29-2.68-5.97-5.97-5.97h0Z"/>
      </g>
    </g>
  </g>
</svg>

