<?xml version="1.0" encoding="UTF-8"?>
<svg id="Layer_2" data-name="Layer 2" xmlns="http://www.w3.org/2000/svg" viewBox="0 0 92.25 19.85">
  <defs>
    <style>
      .cls-1 {
        stroke-width: 0px;
      }
    </style>
  </defs>
  <g id="Layer_1-2" data-name="Layer 1">
    <g>
      <g>
        <path class="cls-1" d="M7.99,17.67C3.69,17.67.19,14.17.19,9.87S3.69,2.09,7.99,2.09s7.78,3.49,7.78,7.78-3.49,7.8-7.78,7.8ZM7.99,5.17c-2.61,0-4.73,2.11-4.73,4.7s2.12,4.73,4.73,4.73,4.7-2.12,4.7-4.73-2.11-4.7-4.7-4.7Z"/>
        <path class="cls-1" d="M7.99,2.28c4.19,0,7.59,3.41,7.59,7.59s-3.41,7.62-7.59,7.62S.38,14.07.38,9.87,3.79,2.28,7.99,2.28M7.99,14.79c2.7,0,4.89-2.21,4.89-4.92s-2.19-4.89-4.89-4.89-4.92,2.19-4.92,4.89,2.21,4.92,4.92,4.92M7.99,1.9C3.59,1.9,0,5.48,0,9.87s3.59,7.99,7.99,7.99,7.97-3.59,7.97-7.99S12.38,1.9,7.99,1.9h0ZM7.99,14.41c-2.5,0-4.54-2.04-4.54-4.54s2.04-4.52,4.54-4.52,4.52,2.03,4.52,4.52-2.03,4.54-4.52,4.54h0Z"/>
      </g>
      <g>
        <path class="cls-1" d="M16.59,19.66c-.31,0-.56-.25-.56-.56v-9.23c0-4.29,3.49-7.78,7.78-7.78s7.8,3.49,7.8,7.78-3.5,7.8-7.8,7.8c-1.69,0-3.35-.56-4.7-1.58v3.01c0,.31-.25.56-.56.56h-1.96ZM23.81,5.17c-2.59,0-4.7,2.11-4.7,4.7s2.11,4.73,4.7,4.73,4.73-2.12,4.73-4.73-2.12-4.7-4.73-4.7Z"/>
        <path class="cls-1" d="M23.81,2.28c4.2,0,7.62,3.41,7.62,7.59s-3.42,7.62-7.62,7.62c-1.79,0-3.53-.64-4.89-1.79v3.4c0,.21-.17.37-.37.37h-1.96c-.21,0-.37-.17-.37-.37v-9.23c0-4.19,3.41-7.59,7.59-7.59M23.81,14.79c2.71,0,4.92-2.21,4.92-4.92s-2.21-4.89-4.92-4.89-4.89,2.19-4.89,4.89,2.19,4.92,4.89,4.92M23.81,1.9c-4.39,0-7.97,3.57-7.97,7.97v9.23c0,.41.33.75.75.75h1.96c.41,0,.75-.33.75-.75v-2.64c1.33.91,2.9,1.41,4.52,1.41,4.41,0,7.99-3.59,7.99-7.99s-3.59-7.97-7.99-7.97h0ZM23.81,14.41c-2.49,0-4.52-2.04-4.52-4.54s2.03-4.52,4.52-4.52,4.54,2.03,4.54,4.52-2.04,4.54-4.54,4.54h0Z"/>
      </g>
      <g>
        <path class="cls-1" d="M44.91,17.54c-.31,0-.56-.25-.56-.56v-7.06c0-2.61-2.11-4.73-4.7-4.73s-4.7,2.12-4.7,4.73v7.06c0,.31-.25.56-.56.56h-1.96c-.31,0-.56-.25-.56-.56v-7.11c0-4.27,3.49-7.75,7.78-7.75s7.78,3.5,7.78,7.8v7.06c0,.31-.25.56-.56.56h-1.96Z"/>
        <path class="cls-1" d="M39.65,2.31c4.19,0,7.59,3.42,7.59,7.62v7.06c0,.21-.17.37-.37.37h-1.96c-.21,0-.37-.17-.37-.37v-7.06c0-2.71-2.19-4.92-4.89-4.92s-4.89,2.21-4.89,4.92v7.06c0,.21-.17.37-.37.37h-1.96c-.21,0-.37-.17-.37-.37v-7.11c0-4.17,3.41-7.56,7.59-7.56M39.65,1.93c-4.39,0-7.97,3.56-7.97,7.94v7.11c0,.41.33.75.75.75h1.96c.41,0,.75-.33.75-.75v-7.06c0-2.5,2.03-4.54,4.52-4.54s4.52,2.04,4.52,4.54v7.06c0,.41.33.75.75.75h1.96c.41,0,.75-.33.75-.75v-7.06c0-4.41-3.57-7.99-7.97-7.99h0Z"/>
      </g>
      <g>
        <path class="cls-1" d="M61.86,17.67c-1.62,0-3.14-.67-4.21-1.84-1.1,1.19-2.59,1.84-4.23,1.84-3.18,0-5.77-2.59-5.77-5.77V2.7c0-.31.25-.56.56-.56h1.96c.31,0,.56.25.56.56v9.23c0,1.47,1.21,2.67,2.69,2.67s2.67-1.21,2.67-2.69V2.7c0-.31.25-.56.56-.56h1.98c.31,0,.56.25.56.56v9.23c0,1.47,1.2,2.67,2.67,2.67s2.69-1.21,2.69-2.69V2.7c0-.31.25-.56.56-.56h1.96c.31,0,.56.25.56.56v9.23c0,3.17-2.59,5.74-5.77,5.74Z"/>
        <path class="cls-1" d="M67.07,2.33c.21,0,.37.17.37.37v9.23c0,3.06-2.5,5.55-5.58,5.55-1.64,0-3.17-.72-4.21-1.94-1.06,1.24-2.58,1.94-4.23,1.94-3.08,0-5.58-2.5-5.58-5.58V2.7c0-.21.17-.37.37-.37h1.96c.21,0,.37.17.37.37v9.23c0,1.57,1.29,2.85,2.88,2.85s2.85-1.29,2.85-2.88V2.7c0-.21.17-.37.37-.37h1.98c.21,0,.37.17.37.37v9.23c0,1.57,1.28,2.85,2.86,2.85s2.88-1.29,2.88-2.88V2.7c0-.21.17-.37.37-.37h1.96M67.07,1.96h-1.96c-.41,0-.75.33-.75.75v9.2c0,1.38-1.12,2.51-2.51,2.51s-2.48-1.11-2.48-2.48V2.7c0-.41-.33-.75-.75-.75h-1.98c-.41,0-.75.33-.75.75v9.2c0,1.38-1.11,2.51-2.48,2.51s-2.51-1.11-2.51-2.48V2.7c0-.41-.33-.75-.75-.75h-1.96c-.41,0-.75.33-.75.75v9.2c0,3.28,2.67,5.96,5.96,5.96,1.62,0,3.11-.62,4.23-1.76,1.1,1.12,2.61,1.76,4.21,1.76,3.28,0,5.96-2.66,5.96-5.93V2.7c0-.41-.33-.75-.75-.75h0Z"/>
      </g>
      <g>
        <path class="cls-1" d="M75.69,17.67c-4.3,0-7.8-3.5-7.8-7.8s3.5-7.78,7.8-7.78,7.78,3.49,7.78,7.78v7.11c0,.31-.25.56-.56.56h-1.96c-.31,0-.56-.25-.56-.56v-.89c-1.35,1.02-3.01,1.58-4.7,1.58ZM75.69,5.17c-2.61,0-4.73,2.11-4.73,4.7s2.12,4.73,4.73,4.73,4.7-2.12,4.7-4.73-2.11-4.7-4.7-4.7Z"/>
        <path class="cls-1" d="M75.69,2.28c4.19,0,7.59,3.41,7.59,7.59v7.11c0,.21-.17.37-.37.37h-1.96c-.21,0-.37-.17-.37-.37v-1.28c-1.36,1.14-3.1,1.79-4.89,1.79-4.2,0-7.62-3.42-7.62-7.62s3.42-7.59,7.62-7.59M75.69,14.79c2.7,0,4.89-2.21,4.89-4.92s-2.19-4.89-4.89-4.89-4.92,2.19-4.92,4.89,2.21,4.92,4.92,4.92M75.69,1.9c-4.41,0-7.99,3.57-7.99,7.97s3.59,7.99,7.99,7.99c1.61,0,3.19-.49,4.52-1.41v.53c0,.41.33.75.75.75h1.96c.41,0,.75-.33.75-.75v-7.11c0-4.39-3.57-7.97-7.97-7.97h0ZM75.69,14.41c-2.5,0-4.54-2.04-4.54-4.54s2.04-4.52,4.54-4.52,4.52,2.03,4.52,4.52-2.03,4.54-4.52,4.54h0Z"/>
      </g>
      <g>
        <path class="cls-1" d="M91.5,17.67c-4.29,0-7.78-3.5-7.78-7.8V.75c0-.31.25-.56.56-.56h1.96c.31,0,.56.25.56.56v9.12c0,2.58,2.11,4.71,4.71,4.73.31,0,.55.25.55.56v1.96c0,.31-.25.56-.56.56Z"/>
        <path class="cls-1" d="M86.24.38c.21,0,.37.17.37.37v9.12c0,2.69,2.2,4.89,4.89,4.92.2,0,.37.17.37.37v1.96c0,.21-.17.37-.37.37-4.19,0-7.59-3.42-7.59-7.62V.75c0-.21.17-.37.37-.37h1.96M86.24,0h-1.96c-.41,0-.75.33-.75.75v9.12c0,4.41,3.57,7.99,7.97,7.99.41,0,.75-.33.75-.75v-1.96c0-.41-.33-.74-.74-.75-2.49-.02-4.52-2.06-4.52-4.54V.75c0-.41-.33-.75-.75-.75h0Z"/>
      </g>
    </g>
  </g>
</svg>